<svg xmlns="http://www.w3.org/2000/svg" width="32" height="32" viewBox="0 0 32 32">
    <g fill="none" fill-rule="evenodd">
        <circle cx="16" cy="16" r="16" fill="#FFF" fill-rule="nonzero"/>
        <path fill="#005AAB" d="M14.991 19.34a6.959 6.959 0 01-3.589-1.213c-.129-.095-.261-.187-.379-.292a.932.932 0 01-.14-1.373c.318-.42.896-.543 1.358-.29.104.048.204.105.3.168a6.161 6.161 0 006.523.057 1.8 1.8 0 01.636-.312c.434-.123.897.052 1.142.431a.88.88 0 01-.069 1.205 5.316 5.316 0 01-1.9 1.162 9.459 9.459 0 01-2.153.457c.111.113.163.17.232.235 1 .949 2 1.892 2.992 2.842a.9.9 0 01.223 1.105 1.19 1.19 0 01-1.107.653 1.105 1.105 0 01-.7-.338c-.753-.718-1.52-1.421-2.257-2.151-.214-.212-.317-.172-.507.012a171.02 171.02 0 01-2.3 2.186c-.304.31-.773.391-1.164.2a1.115 1.115 0 01-.68-1.027c.024-.269.156-.517.365-.688.987-.933 1.972-1.867 2.955-2.8.064-.069.128-.133.219-.229zm.818-3.246a4.154 4.154 0 114.409-4.1 4.272 4.272 0 01-4.409 4.1zm2.176-4.154a2.147 2.147 0 10-2.13 2.034 2.079 2.079 0 002.13-2.034z"/>
    </g>
</svg>
