<svg xmlns="http://www.w3.org/2000/svg" width="32" height="32" viewBox="0 0 32 32">
    <g fill="none" fill-rule="evenodd">
        <circle cx="16" cy="16" r="16" fill="#FFF" fill-rule="nonzero"/>
        <path fill="#005AAB" d="M24.3 11.023c-.65-.731-1.849-1.029-4.14-1.029h-8.316c-2.344 0-3.564.318-4.211 1.1C7 11.85 7 12.97 7 14.518v2.952c0 3 .749 4.524 4.842 4.524h8.316c1.987 0 3.088-.264 3.8-.909.73-.662 1.042-1.743 1.042-3.615v-2.952c0-1.633-.049-2.758-.7-3.495zm-5.742 5.379l-3.776 1.87a.6.6 0 01-.57-.018.543.543 0 01-.28-.47v-3.727a.544.544 0 01.279-.47.6.6 0 01.569-.018l3.777 1.857a.537.537 0 01-.001.974l.002.002z"/>
    </g>
</svg>
