<svg xmlns="http://www.w3.org/2000/svg" width="32" height="32" viewBox="0 0 32 32">
    <g fill="none" fill-rule="evenodd">
        <circle cx="16" cy="16" r="16" fill="#FFF" fill-rule="nonzero"/>
        <path fill="#005AAB" d="M19.334 7.8h-.827a4.331 4.331 0 00-4.166 4.47v1.885h-1.412a.275.275 0 00-.263.284V16.7a.273.273 0 00.263.282h1.412V23.9a.274.274 0 00.264.284h2.106a.274.274 0 00.263-.284v-6.923h2.095a.273.273 0 00.264-.282v-2.262a.276.276 0 00-.264-.284h-2.095v-1.885a1.594 1.594 0 011.533-1.644h.827a.274.274 0 00.263-.284V8.075a.271.271 0 00-.263-.275z"/>
    </g>
</svg>
