<svg xmlns="http://www.w3.org/2000/svg" width="32" height="32" viewBox="0 0 32 32">
    <g fill="none" fill-rule="evenodd">
        <circle cx="16" cy="16" r="16" fill="#FFF" fill-rule="nonzero"/>
        <path fill="#005AAB" d="M20.032 6.994h-8.065A4.973 4.973 0 007 11.962v8.064a4.973 4.973 0 004.967 4.968h8.065A4.973 4.973 0 0025 20.026v-8.064a4.974 4.974 0 00-4.968-4.968zm3.371 13.032a3.374 3.374 0 01-3.371 3.371h-8.065a3.374 3.374 0 01-3.37-3.371v-8.064a3.374 3.374 0 013.37-3.371h8.065a3.375 3.375 0 013.371 3.371v8.064zm-7.4-8.67a4.639 4.639 0 10.004 9.278A4.639 4.639 0 0016 11.356h.003zm0 7.679a3.041 3.041 0 11.006-6.082A3.041 3.041 0 0116 19.035h.003zM20.832 10a1.171 1.171 0 10.002 2.342A1.171 1.171 0 0020.832 10z"/>
    </g>
</svg>
