<svg xmlns="http://www.w3.org/2000/svg" width="32" height="32" viewBox="0 0 32 32">
    <g fill="none" fill-rule="evenodd">
        <circle cx="16" cy="16" r="16" fill="#FFF" fill-rule="nonzero"/>
        <path fill="#005AAB" d="M22.381 18.836a12.933 12.933 0 00-1.038-1.077c-.126-.12-.256-.243-.381-.369a.536.536 0 01-.088-.892c.2-.278.406-.555.607-.827.183-.243.372-.494.554-.749l.037-.053c.382-.48.684-1.017.895-1.593a.722.722 0 00-.017-.59.7.7 0 00-.512-.283 1.286 1.286 0 00-.236-.017h-2.287a.7.7 0 00-.707.5c-.127.321-.266.663-.424.988a8.118 8.118 0 01-1.3 2.02l-.024.026a.417.417 0 01-.2.157.1.1 0 01-.028 0 .628.628 0 01-.2-.477v-2.662-.027a.768.768 0 00-.669-.8.26.26 0 00-.039 0h-2.359a.949.949 0 00-.8.4.371.371 0 00-.11.355c.055.118.17.198.3.208a.6.6 0 01.509.559c.084.617.095 1.242.032 1.862a1.6 1.6 0 01-.105.485.209.209 0 01-.105.129.245.245 0 01-.134-.059 1.984 1.984 0 01-.473-.531 12.569 12.569 0 01-1.363-2.558.808.808 0 00-.754-.559c-.376-.007-.717-.01-1.043-.01-.356 0-.686 0-1.008.011a.625.625 0 00-.567.249.652.652 0 00.02.625 25.609 25.609 0 002.669 4.816 6.74 6.74 0 002.075 1.963c.833.472 1.779.71 2.736.687.118 0 .24 0 .364-.007a.754.754 0 00.859-.849c-.004-.31.062-.618.194-.9a.24.24 0 01.21-.171.387.387 0 01.2.074c.124.088.237.19.337.305.087.1.174.195.26.294.186.21.379.428.58.635a1.8 1.8 0 001.484.611h2.094a.608.608 0 00.492-.319.854.854 0 00-.007-.8 4.3 4.3 0 00-.53-.78z"/>
    </g>
</svg>
